HIERARCHY
ROOT Hips
{
  OFFSET 5.72205e-005 65.662 3.42586
  CHANNELS 6 Xposition Yposition Zposition Zrotation Xrotation Yrotation
  JOINT Chest
  {
    OFFSET 0 8.7983 -4.7612
    CHANNELS 6 Xposition Yposition Zposition Zrotation Xrotation Yrotation
    JOINT Chest2
    {
      OFFSET 0 8.0291 0.4195
      CHANNELS 6 Xposition Yposition Zposition Zrotation Xrotation Yrotation
      JOINT Chest3
      {
        OFFSET 0 9.9351 -2.2114
        CHANNELS 6 Xposition Yposition Zposition Zrotation Xrotation Yrotation
        JOINT Neck
        {
          OFFSET 0 22.3885 -0.4656
          CHANNELS 6 Xposition Yposition Zposition Zrotation Xrotation Yrotation
          JOINT Head
          {
            OFFSET -0.0001 12.643 3.4389
            CHANNELS 6 Xposition Yposition Zposition Zrotation Xrotation Yrotation
            End Site
            {
              OFFSET 0.0001 17.6655 0.5274
            }
          }
        }
        JOINT LeftCollar
        {
          OFFSET 2.2603 21.606 7.4023
          CHANNELS 6 Xposition Yposition Zposition Zrotation Xrotation Yrotation
          JOINT LeftShoulder
          {
            OFFSET 13.5163 -1.1332 -5.0146
            CHANNELS 6 Xposition Yposition Zposition Zrotation Xrotation Yrotation
            JOINT LeftElbow
            {
              OFFSET -0.0995 -28.05 -0.2431
              CHANNELS 6 Xposition Yposition Zposition Zrotation Xrotation Yrotation
              JOINT LeftWrist
              {
                OFFSET 0.0679 -23.3996 -0.1402
                CHANNELS 6 Xposition Yposition Zposition Zrotation Xrotation Yrotation
                JOINT LeftFinger1
                {
                  OFFSET 0.7932 -9.069 2.5189
                  CHANNELS 6 Xposition Yposition Zposition Zrotation Xrotation Yrotation
                  JOINT LeftFinger11
                  {
                    OFFSET -0.8272 -3.3923 0.5977
                    CHANNELS 6 Xposition Yposition Zposition Zrotation Xrotation Yrotation
                    JOINT LeftFinger12
                    {
                      OFFSET -0.5649 -2.3158 0.4082
                      CHANNELS 6 Xposition Yposition Zposition Zrotation Xrotation Yrotation
                      End Site
                      {
                        OFFSET -0.4919 -1.6479 0.2673
                      }
                    }
                  }
                }
                JOINT LeftFinger2
                {
                  OFFSET 0.9159 -9.2044 0.2193
                  CHANNELS 6 Xposition Yposition Zposition Zrotation Xrotation Yrotation
                  JOINT LeftFinger21
                  {
                    OFFSET 0.0117 -4.1944 -0.0248
                    CHANNELS 6 Xposition Yposition Zposition Zrotation Xrotation Yrotation
                    JOINT LeftFinger22
                    {
                      OFFSET 0.0071 -2.3249 -0.0142
                      CHANNELS 6 Xposition Yposition Zposition Zrotation Xrotation Yrotation
                      End Site
                      {
                        OFFSET -0.1475 -2.0882 0.0028
                      }
                    }
                  }
                }
                JOINT LeftFinger3
                {
                  OFFSET 0.6113 -8.7231 -2.0637
                  CHANNELS 6 Xposition Yposition Zposition Zrotation Xrotation Yrotation
                  JOINT LeftFinger31
                  {
                    OFFSET -0.1927 -3.8059 -0.2383
                    CHANNELS 6 Xposition Yposition Zposition Zrotation Xrotation Yrotation
                    JOINT LeftFinger32
                    {
                      OFFSET -0.1091 -2.1688 -0.1362
                      CHANNELS 6 Xposition Yposition Zposition Zrotation Xrotation Yrotation
                      End Site
                      {
                        OFFSET -0.2358 -1.9176 -0.0906
                      }
                    }
                  }
                }
                JOINT LeftFinger4
                {
                  OFFSET -0.6151 -8.0947 -3.5641
                  CHANNELS 6 Xposition Yposition Zposition Zrotation Xrotation Yrotation
                  JOINT LeftFinger41
                  {
                    OFFSET -0.4882 -2.341 -0.6462
                    CHANNELS 6 Xposition Yposition Zposition Zrotation Xrotation Yrotation
                    JOINT LeftFinger42
                    {
                      OFFSET -0.3575 -1.7167 -0.4742
                      CHANNELS 6 Xposition Yposition Zposition Zrotation Xrotation Yrotation
                      End Site
                      {
                        OFFSET -0.4187 -1.5237 -0.3496
                      }
                    }
                  }
                }
                JOINT LeftFinger0
                {
                  OFFSET -1.42 -1.8761 1.4223
                  CHANNELS 6 Xposition Yposition Zposition Zrotation Xrotation Yrotation
                  JOINT LeftFinger01
                  {
                    OFFSET -1.1471 -3.4929 2.6334
                    CHANNELS 6 Xposition Yposition Zposition Zrotation Xrotation Yrotation
                    JOINT LeftFinger02
                    {
                      OFFSET -0.823 -2.3 1.6571
                      CHANNELS 6 Xposition Yposition Zposition Zrotation Xrotation Yrotation
                      End Site
                      {
                        OFFSET -0.5822 -1.6914 1.1582
                      }
                    }
                  }
                }
              }
            }
          }
        }
        JOINT RightCollar
        {
          OFFSET -2.2603 21.606 7.4023
          CHANNELS 6 Xposition Yposition Zposition Zrotation Xrotation Yrotation
          JOINT RightShoulder
          {
            OFFSET -13.5187 -1.1334 -5.0155
            CHANNELS 6 Xposition Yposition Zposition Zrotation Xrotation Yrotation
            JOINT RightElbow
            {
              OFFSET 0.0994 -28.0499 -0.2431
              CHANNELS 6 Xposition Yposition Zposition Zrotation Xrotation Yrotation
              JOINT RightWrist
              {
                OFFSET -0.0679 -23.3996 -0.1402
                CHANNELS 6 Xposition Yposition Zposition Zrotation Xrotation Yrotation
                JOINT RightFinger1
                {
                  OFFSET -0.7932 -9.0691 2.5189
                  CHANNELS 6 Xposition Yposition Zposition Zrotation Xrotation Yrotation
                  JOINT RightFinger11
                  {
                    OFFSET 0.8272 -3.3923 0.5977
                    CHANNELS 6 Xposition Yposition Zposition Zrotation Xrotation Yrotation
                    JOINT RightFinger12
                    {
                      OFFSET 0.565 -2.3158 0.4082
                      CHANNELS 6 Xposition Yposition Zposition Zrotation Xrotation Yrotation
                      End Site
                      {
                        OFFSET 0.4919 -1.6479 0.2673
                      }
                    }
                  }
                }
                JOINT RightFinger2
                {
                  OFFSET -0.916 -9.2044 0.2193
                  CHANNELS 6 Xposition Yposition Zposition Zrotation Xrotation Yrotation
                  JOINT RightFinger21
                  {
                    OFFSET -0.0117 -4.1944 -0.0248
                    CHANNELS 6 Xposition Yposition Zposition Zrotation Xrotation Yrotation
                    JOINT RightFinger22
                    {
                      OFFSET -0.0071 -2.3249 -0.0142
                      CHANNELS 6 Xposition Yposition Zposition Zrotation Xrotation Yrotation
                      End Site
                      {
                        OFFSET 0.1475 -2.0882 0.0028
                      }
                    }
                  }
                }
                JOINT RightFinger3
                {
                  OFFSET -0.6113 -8.7231 -2.0637
                  CHANNELS 6 Xposition Yposition Zposition Zrotation Xrotation Yrotation
                  JOINT RightFinger31
                  {
                    OFFSET 0.1927 -3.8059 -0.2383
                    CHANNELS 6 Xposition Yposition Zposition Zrotation Xrotation Yrotation
                    JOINT RightFinger32
                    {
                      OFFSET 0.1091 -2.1688 -0.1362
                      CHANNELS 6 Xposition Yposition Zposition Zrotation Xrotation Yrotation
                      End Site
                      {
                        OFFSET 0.2358 -1.9176 -0.0906
                      }
                    }
                  }
                }
                JOINT RightFinger4
                {
                  OFFSET 0.6151 -8.0947 -3.564
                  CHANNELS 6 Xposition Yposition Zposition Zrotation Xrotation Yrotation
                  JOINT RightFinger41
                  {
                    OFFSET 0.4882 -2.341 -0.6462
                    CHANNELS 6 Xposition Yposition Zposition Zrotation Xrotation Yrotation
                    JOINT RightFinger42
                    {
                      OFFSET 0.3574 -1.7166 -0.4742
                      CHANNELS 6 Xposition Yposition Zposition Zrotation Xrotation Yrotation
                      End Site
                      {
                        OFFSET 0.4187 -1.5237 -0.3496
                      }
                    }
                  }
                }
                JOINT RightFinger0
                {
                  OFFSET 1.4199 -1.8761 1.4221
                  CHANNELS 6 Xposition Yposition Zposition Zrotation Xrotation Yrotation
                  JOINT RightFinger01
                  {
                    OFFSET 1.1472 -3.4929 2.6336
                    CHANNELS 6 Xposition Yposition Zposition Zrotation Xrotation Yrotation
                    JOINT RightFinger02
                    {
                      OFFSET 0.8229 -2.3 1.6571
                      CHANNELS 6 Xposition Yposition Zposition Zrotation Xrotation Yrotation
                      End Site
                      {
                        OFFSET 0.5822 -1.6914 1.1582
                      }
                    }
                  }
                }
              }
            }
          }
        }
      }
    }
  }
  JOINT RightHip
  {
    OFFSET -9.412 3.9771 -0.7758
    CHANNELS 6 Xposition Yposition Zposition Zrotation Xrotation Yrotation
    JOINT RightKnee
    {
      OFFSET -0.7531 -40.938 0
      CHANNELS 6 Xposition Yposition Zposition Zrotation Xrotation Yrotation
      JOINT RightAnkle
      {
        OFFSET 0 -40.1986 0
        CHANNELS 6 Xposition Yposition Zposition Zrotation Xrotation Yrotation
        JOINT RightToe
        {
          OFFSET 0 -4.4182 9.239
          CHANNELS 6 Xposition Yposition Zposition Zrotation Xrotation Yrotation
          End Site
          {
            OFFSET 0 0 6.1981
          }
        }
      }
    }
  }
  JOINT LeftHip
  {
    OFFSET 9.4119 3.9773 -0.7758
    CHANNELS 6 Xposition Yposition Zposition Zrotation Xrotation Yrotation
    JOINT LeftKnee
    {
      OFFSET 0.7532 -40.9383 0
      CHANNELS 6 Xposition Yposition Zposition Zrotation Xrotation Yrotation
      JOINT LeftAnkle
      {
        OFFSET 0 -40.1986 0
        CHANNELS 6 Xposition Yposition Zposition Zrotation Xrotation Yrotation
        JOINT LeftToe
        {
          OFFSET 0 -4.4182 9.239
          CHANNELS 6 Xposition Yposition Zposition Zrotation Xrotation Yrotation
          End Site
          {
            OFFSET 0 0 6.1981
          }
        }
      }
    }
  }
}
MOTION
Frames:	4
Frame Time:	0.0333333
5.72205e-005 65.662 3.42586 0 0 -0 0 8.7983 -4.7612 0 0 -0 0 8.0291 0.4195 0 0 -0 0 9.9351 -2.2114 0 0 -0 0 22.3885 -0.4656 0 0 -0 -0.0001 12.643 3.4389 0 0 -0 2.2603 21.606 7.4023 0 0 -12.5014 13.5163 -1.1332 -5.0146 88.1196 14.2451 10.6914 -0.0995 -28.05 -0.2431 -0.00160068 -0.00239207 0.000740045 0.0679 -23.3996 -0.1402 -8.4365e-005 7.00714e-005 -9.52055e-007 0.7932 -9.069 2.5189 9.93923e-017 -1.98785e-016 -1.59028e-015 -0.8272 -3.3923 0.5977 9.93923e-017 -5.96354e-016 -1.59028e-015 -0.5649 -2.3158 0.4082 -9.93923e-017 -5.96354e-016 -1.59028e-015 0.9159 -9.2044 0.2193 9.93923e-017 -1.98785e-016 -1.59028e-015 0.0117 -4.1944 -0.0248 -0.0128176 0.00232552 8.52707e-005 0.0071 -2.3249 -0.0142 9.93923e-017 5.96354e-016 -0 0.6113 -8.7231 -2.0637 9.93923e-017 -1.98785e-016 -1.59028e-015 -0.1927 -3.8059 -0.2383 -0.0160551 0.00299681 0.000857156 -0.1091 -2.1688 -0.1362 -2.48481e-016 0 3.18055e-015 -0.6151 -8.0947 -3.5641 9.93923e-017 -1.98785e-016 -1.59028e-015 -0.4882 -2.341 -0.6462 -0.0125865 0.0031206 0.00282719 -0.3575 -1.7167 -0.4742 0 1.98785e-016 -0 -1.42 -1.8761 1.4223 9.93923e-017 -1.98785e-016 -1.59028e-015 -1.1471 -3.4929 2.6334 9.93923e-017 -5.96354e-016 -1.59028e-015 -0.823 -2.3 1.6571 -9.93923e-017 -5.96354e-016 -1.59028e-015 -2.2603 21.606 7.4023 -0.865644 0.16582 7.03859 -13.5187 -1.1334 -5.0155 -88.0329 10.2057 -10.5567 0.0994 -28.0499 -0.2431 0.0015593 -0.00248883 -0.000788628 -0.0679 -23.3996 -0.1402 7.87605e-005 4.10553e-005 1.24965e-005 -0.7932 -9.0691 2.5189 -3.97569e-016 -7.95139e-016 3.18055e-015 0.8272 -3.3923 0.5977 -1.98785e-016 -3.97569e-016 3.18055e-015 0.565 -2.3158 0.4082 -1.98785e-016 0 3.18055e-015 -0.916 -9.2044 0.2193 -3.97569e-016 -7.95139e-016 3.18055e-015 -0.0117 -4.1944 -0.0248 0.0129473 0.00231697 -8.70038e-005 -0.0071 -2.3249 -0.0142 9.93923e-017 -7.95139e-016 1.59028e-015 -0.6113 -8.7231 -2.0637 -3.97569e-016 -7.95139e-016 3.18055e-015 0.1927 -3.8059 -0.2383 0.0163314 0.00303369 -0.000872333 0.1091 -2.1688 -0.1362 3.97569e-016 7.95139e-016 -3.18055e-015 0.6151 -8.0947 -3.564 -3.97569e-016 -7.95139e-016 3.18055e-015 0.4882 -2.341 -0.6462 0.0145763 0.00367772 -0.00326275 0.3574 -1.7166 -0.4742 9.93923e-017 -3.97569e-016 -0 1.4199 -1.8761 1.4221 -3.97569e-016 -7.95139e-016 3.18055e-015 1.1472 -3.4929 2.6336 -1.98785e-016 -3.97569e-016 3.18055e-015 0.8229 -2.3 1.6571 -1.98785e-016 0 3.18055e-015 -9.412 3.9771 -0.7758 3.42482 1.32465 -0.0626183 -0.7531 -40.938 0 0.000117508 0.717283 0.000978199 0 -40.1986 0 -3.4257 -2.04197 -0.0604716 8.88178e-016 -4.4182 9.239 6.47761e-025 0 -0 9.4119 3.9773 -0.7758 -3.42483 1.34017 0.0627307 0.7532 -40.9383 -2.22045e-016 -0.000193936 0.682302 -0.0013703 -8.88179e-016 -40.1986 0 3.42574 -2.02253 0.0595886 -8.88178e-016 -4.4182 9.239 -8.45714e-024 0 -7.40531e-025 
-42.8951 28.3734 20.7828 -7.50113 -13.7183 70.9374 0 8.7983 -4.7612 -0.82763 11.92 -0.810131 0 8.0291 0.4195 -1.52996 23.8498 -1.4899 7.10543e-015 9.9351 -2.2114 -1.52994 23.8498 -1.48992 0 22.3885 -0.4656 3.54932e-005 -20.0006 3.12919e-005 -0.0001 12.643 3.4389 8.1722e-006 -8.88985 2.23965e-006 2.2603 21.606 7.4023 0.0012403 -7.40982 -12.4997 13.5163 -1.1332 -5.0146 130.85 -44.6401 37.5737 -0.0995 -28.05 -0.2431 -1.47589 -8.01382 -0.361254 0.0679 -23.3996 -0.1402 40.3483 -6.27681 3.56115 0.7932 -9.069 2.5189 3.97569e-015 -6.36111e-015 -1.59028e-015 -0.8272 -3.3923 0.5977 -7.95139e-016 -6.36111e-015 -3.18055e-015 -0.5649 -2.3158 0.4082 -1.59028e-015 -9.54166e-015 1.59028e-015 0.9159 -9.2044 0.2193 3.97569e-015 -6.36111e-015 -1.59028e-015 0.0117 -4.1944 -0.0248 -0.0128325 0.00232632 8.59218e-005 0.0071 -2.3249 -0.0142 3.97569e-016 0 6.36111e-015 0.6113 -8.7231 -2.0637 3.97569e-015 -6.36111e-015 -1.59028e-015 -0.1927 -3.8059 -0.2383 -0.0160482 0.00300067 0.000853562 -0.1091 -2.1688 -0.1362 1.19271e-015 -3.18055e-015 -1.59028e-015 -0.6151 -8.0947 -3.5641 3.97569e-015 -6.36111e-015 -1.59028e-015 -0.4882 -2.341 -0.6462 -0.0126237 0.00312845 0.00283248 -0.3575 -1.7167 -0.4742 3.97569e-015 0 -1.59028e-015 -1.42 -1.8761 1.4223 3.97569e-015 -6.36111e-015 -1.59028e-015 -1.1471 -3.4929 2.6334 -7.95139e-016 -6.36111e-015 -3.18055e-015 -0.823 -2.3 1.6571 -1.59028e-015 -9.54166e-015 1.59028e-015 -2.2603 21.606 7.4023 -0.872568 -7.2428 6.9261 -13.5187 -1.1334 -5.0155 -104.462 -44.9596 -48.0844 0.0994 -28.0499 -0.2431 3.55021 -23.2944 15.8717 -0.0679 -23.3996 -0.1402 -34.9964 -5.10096 18.5722 -0.7932 -9.0691 2.5189 1.58901e-030 9.54166e-015 -9.54166e-015 0.8272 -3.3923 0.5977 8.82781e-031 1.59028e-014 -3.18055e-015 0.565 -2.3158 0.4082 -1.65986e-006 5.85047e-006 2.19179e-006 -0.916 -9.2044 0.2193 1.58901e-030 9.54166e-015 -9.54166e-015 -0.0117 -4.1944 -0.0248 0.0130271 0.0023308 -8.31704e-005 -0.0071 -2.3249 -0.0142 2.95198e-006 -7.95285e-006 1.54635e-006 -0.6113 -8.7231 -2.0637 1.58901e-030 9.54166e-015 -9.54166e-015 0.1927 -3.8059 -0.2383 0.0164049 0.003037 -0.000872937 0.1091 -2.1688 -0.1362 -3.58295e-023 6.45447e-007 3.18055e-015 0.6151 -8.0947 -3.564 1.58901e-030 9.54166e-015 -9.54166e-015 0.4882 -2.341 -0.6462 0.0145396 0.00367115 -0.00324157 0.3574 -1.7166 -0.4742 3.75891e-006 -5.99624e-006 -6.49721e-006 1.4199 -1.8761 1.4221 1.58901e-030 9.54166e-015 -9.54166e-015 1.1472 -3.4929 2.6336 8.82781e-031 1.59028e-014 -3.18055e-015 0.8229 -2.3 1.6571 -1.65986e-006 5.85047e-006 2.19179e-006 -9.412 3.9771 -0.7758 -5.05726 -22.9564 -2.47522 -0.7531 -40.938 -7.10543e-015 179.973 86.5556 177.415 0 -40.1986 -3.55271e-015 -2.21696 37.1764 -0.995074 0 -4.4182 9.239 -5.45026e-007 -2.9319e-006 1.46643e-006 9.4119 3.9773 -0.7758 4.2408 -22.2816 -2.96726 0.7532 -40.9383 -3.55271e-015 -179.993 85.5395 -177.238 0 -40.1986 8.88178e-016 2.29013 37.8037 1.06117 0 -4.4182 9.239 7.06843e-007 4.36815e-006 1.77084e-006 
-63.0539 11.1484 24.5409 -7.70741 5.3396 93.9919 0 8.7983 -4.7612 -2.65278 16.7475 -0.229911 0 8.0291 0.4195 -5.6194 33.4864 0.422637 0 9.9351 -2.2114 -5.61934 33.4862 0.422616 0 22.3885 -0.4656 0.000277798 -29.0019 7.6669e-005 -0.0001 12.643 3.4389 7.30959e-006 -12.8903 2.84932e-006 2.2603 21.606 7.4023 -0.00428766 -10.7434 -12.5069 13.5163 -1.1332 -5.0146 125.105 -69.694 28.0488 -0.0995 -28.05 -0.2431 -2.16512 -11.6154 -0.597941 0.0679 -23.3996 -0.1402 58.5915 -7.9389 6.59695 0.7932 -9.069 2.5189 -1.98785e-015 -1.6596e-006 -3.18055e-015 -0.8272 -3.3923 0.5977 -4.59465e-007 1.7419e-006 -3.25614e-006 -0.5649 -2.3158 0.4082 -7.95139e-016 -1.59028e-015 -3.18055e-015 0.9159 -9.2044 0.2193 -1.98785e-015 -1.6596e-006 -3.18055e-015 0.0117 -4.1944 -0.0248 -0.0128274 0.00232878 8.29733e-005 0.0071 -2.3249 -0.0142 -5.76736e-006 1.52048e-006 1.14365e-006 0.6113 -8.7231 -2.0637 -1.98785e-015 -1.6596e-006 -3.18055e-015 -0.1927 -3.8059 -0.2383 -0.0160532 0.00299686 0.000857871 -0.1091 -2.1688 -0.1362 1.89372e-006 3.86218e-007 -3.68678e-006 -0.6151 -8.0947 -3.5641 -1.98785e-015 -1.6596e-006 -3.18055e-015 -0.4882 -2.341 -0.6462 -0.0125846 0.00312215 0.0028234 -0.3575 -1.7167 -0.4742 -3.97569e-016 0 3.18055e-015 -1.42 -1.8761 1.4223 -1.98785e-015 -1.6596e-006 -3.18055e-015 -1.1471 -3.4929 2.6334 -4.59465e-007 1.7419e-006 -3.25614e-006 -0.823 -2.3 1.6571 -7.95139e-016 -1.59028e-015 -3.18055e-015 -2.2603 21.606 7.4023 -0.88034 -10.5776 6.87448 -13.5187 -1.1334 -5.0155 -102.398 -69.3947 -55.4439 0.0994 -28.0499 -0.2431 5.57371 -33.8167 23.1316 -0.0679 -23.3996 -0.1402 -50.7966 -6.62651 26.0482 -0.7932 -9.06911 2.5189 -1.98785e-016 3.18055e-015 7.95139e-016 0.8272 -3.3923 0.5977 -1.19271e-015 1.59028e-015 7.95139e-016 0.565 -2.3158 0.4082 -3.97569e-016 1.59028e-015 7.95139e-016 -0.916 -9.20441 0.2193 -1.98785e-016 3.18055e-015 7.95139e-016 -0.0117 -4.1944 -0.0248 0.0129428 0.00231411 -8.79624e-005 -0.0071 -2.3249 -0.0142 9.93923e-016 -4.77083e-015 -0 -0.6113 -8.72311 -2.0637 -1.98785e-016 3.18055e-015 7.95139e-016 0.1927 -3.8059 -0.2383 0.0163488 0.00303467 -0.000872083 0.1091 -2.1688 -0.1362 1.59028e-015 3.18055e-015 -0 0.6151 -8.09471 -3.564 -1.98785e-016 3.18055e-015 7.95139e-016 0.4882 -2.341 -0.6462 0.0145528 0.0036684 -0.00325576 0.3574 -1.7166 -0.4742 -5.96354e-016 3.18055e-015 -0 1.4199 -1.8761 1.4221 -1.98785e-016 3.18055e-015 7.95139e-016 1.1472 -3.4929 2.6336 -1.19271e-015 1.59028e-015 7.95139e-016 0.8229 -2.3 1.6571 -3.97569e-016 1.59028e-015 7.95139e-016 -9.412 3.9771 -0.7758 -8.41286 -33.7102 -5.46803 -0.7531 -40.938 7.10543e-015 179.885 48.2538 175.04 0 -40.1986 0 0.54948 57.9496 -3.66795 0 -4.4182 9.239 2.38542e-015 -5.2181e-015 -3.18055e-015 9.4119 3.9773 -0.7758 5.75378 -32.4631 -3.09901 0.7532 -40.9383 0 -179.867 45.046 -174.928 0 -40.1986 7.10543e-015 -0.892191 57.0618 3.92896 -3.55271e-015 -4.4182 9.239 -3.43726e-024 6.19202e-008 3.18055e-015 
-58.4503 14.8312 23.823 -7.00346 -0.00235176 89.998 3.55271e-015 8.7983 -4.7612 -2.15698 15.7986 -0.40305 -3.55271e-015 8.0291 0.4195 -4.46502 31.6029 -0.168642 3.55271e-015 9.9351 -2.2114 -4.46503 31.6027 -0.168603 3.55271e-015 22.3885 -0.4656 0.00022338 -27.0017 6.27924e-005 -0.0001 12.643 3.4389 3.67372e-006 -12.0013 1.43331e-005 2.2603 21.606 7.4023 -0.0171036 -9.99862 -12.5229 13.5163 -1.1332 -5.0146 132.829 -64.1466 35.7875 -0.0995 -28.05 -0.2431 -2.04951 -10.7746 -0.539707 0.0679 -23.3996 -0.1402 54.1691 -7.57424 6.30336 0.7932 -9.069 2.5189 6.45874e-007 1.63155e-006 3.22826e-006 -0.8272 -3.3923 0.5977 1.19271e-015 -1.59028e-015 -3.18055e-015 -0.5649 -2.3158 0.4082 -1.28584e-006 -1.93955e-006 -1.26915e-006 0.9159 -9.2044 0.2193 6.45874e-007 1.63155e-006 3.22826e-006 0.0117 -4.1944 -0.0248 -0.0127978 0.00231957 8.46789e-005 0.0071 -2.3249 -0.0142 1.98785e-015 8.8838e-007 -3.18055e-015 0.6113 -8.7231 -2.0637 6.45874e-007 1.63155e-006 3.22826e-006 -0.1927 -3.8059 -0.2383 -0.016044 0.00299156 0.000857032 -0.1091 -2.1688 -0.1362 -8.32481e-007 -7.79707e-007 2.72636e-006 -0.6151 -8.0947 -3.5641 6.45874e-007 1.63155e-006 3.22826e-006 -0.4882 -2.341 -0.6462 -0.0126005 0.00312607 0.00282966 -0.3575 -1.7167 -0.4742 -5.11573e-007 -1.63038e-006 1.74675e-006 -1.42 -1.8761 1.4223 6.45874e-007 1.63155e-006 3.22826e-006 -1.1471 -3.4929 2.6334 1.19271e-015 -1.59028e-015 -3.18055e-015 -0.823 -2.3 1.6571 -1.28584e-006 -1.93955e-006 -1.26915e-006 -2.2603 21.606 7.4023 -0.87834 -9.8366 6.88604 -13.5187 -1.1334 -5.0155 -106.78 -63.314 -56.7542 0.0994 -28.0499 -0.2431 5.14603 -31.3956 20.5891 -0.0679 -23.3996 -0.1402 -47.0453 -6.32172 24.4593 -0.7932 -9.0691 2.5189 -1.39149e-015 2.38542e-015 6.36111e-015 0.8272 -3.3923 0.5977 -7.93179e-006 2.35209e-006 -1.95384e-006 0.565 -2.3158 0.4082 -0 0 3.18055e-015 -0.916 -9.2044 0.2193 -1.39149e-015 2.38542e-015 6.36111e-015 -0.0117 -4.1944 -0.0248 0.0129474 0.00231924 -9.32933e-005 -0.0071 -2.3249 -0.0142 1.10448e-005 -2.11428e-006 2.41577e-006 -0.6113 -8.7231 -2.0637 -1.39149e-015 2.38542e-015 6.36111e-015 0.1927 -3.8059 -0.2383 0.0163398 0.00303718 -0.000869761 0.1091 -2.1688 -0.1362 -1.98785e-016 1.59028e-015 -3.18055e-015 0.6151 -8.0947 -3.564 -1.39149e-015 2.38542e-015 6.36111e-015 0.4882 -2.341 -0.6462 0.0145722 0.00367576 -0.00325901 0.3574 -1.7166 -0.4742 1.98785e-016 -7.95139e-016 3.18055e-015 1.4199 -1.8761 1.4221 -1.39149e-015 2.38542e-015 6.36111e-015 1.1472 -3.4929 2.6336 -7.93179e-006 2.35209e-006 -1.95384e-006 0.8229 -2.3 1.6571 -0 0 3.18055e-015 -9.412 3.9771 -0.7758 -7.69592 -31.1704 -4.51054 -0.7531 -40.938 0 179.927 56.6151 175.747 -7.10543e-015 -40.1986 0 -0.570907 53.0591 -2.59112 0 -4.4182 9.239 -5.94222e-006 -1.02705e-005 3.09703e-006 9.4119 3.9773 -0.7758 5.52837 -30.2698 -3.29565 0.7532 -40.9383 0 -179.914 53.8684 -175.59 0 -40.1986 0 0.353528 52.6822 2.81117 0 -4.4182 9.239 1.53246e-006 -4.84407e-006 -6.61251e-007 
